grf.mot
version=1
nRows=26
nColumns=19
inDegrees=yes
endheader
time	ground_force_vx	ground_force_vy	ground_force_vz	ground_force_px	ground_force_py	ground_force_pz	1_ground_force_vx	1_ground_force_vy	1_ground_force_vz	1_ground_force_px	1_ground_force_py	1_ground_force_pz	ground_torque_x	ground_torque_y	ground_torque_z	1_ground_torque_x	1_ground_torque_y	1_ground_torque_z	
0.01000000000000	-1.92251000000000	150.70900000000000	27.20410000000000	0.14366400000000	0.01256900000000	0.04342170000000	132.33500000000001	976.31899999999996	57.46740000000000	-0.33474900000000	-0.02928670000000	-0.14101600000000	0.00000000000000	-0.07515540000000	0.00000000000000	0.00000000000000	0.85873400000000	0.00000000000000	
0.01166700000000	-3.21067000000000	160.67900000000000	28.02040000000000	0.14706900000000	0.01286690000000	0.04495620000000	133.87200000000001	976.33399999999995	56.51590000000000	-0.33826900000000	-0.02959480000000	-0.14121800000000	0.00000000000000	-0.10509300000000	0.00000000000000	0.00000000000000	0.74704200000000	0.00000000000000	
0.01333300000000	-4.58748000000000	170.90299999999999	28.80490000000000	0.15039800000000	0.01315810000000	0.04648450000000	135.32800000000000	975.85199999999998	55.51080000000000	-0.34170500000000	-0.02989540000000	-0.14141200000000	0.00000000000000	-0.13709800000000	0.00000000000000	0.00000000000000	0.63198400000000	0.00000000000000	
0.01500000000000	-6.05354000000000	181.37500000000000	29.55510000000000	0.15364600000000	0.01344230000000	0.04800440000000	136.69999999999999	974.86699999999996	54.45310000000000	-0.34504700000000	-0.03018770000000	-0.14159500000000	0.00000000000000	-0.17116300000000	0.00000000000000	0.00000000000000	0.51366000000000	0.00000000000000	
0.01666700000000	-7.60924000000000	192.08699999999999	30.26860000000000	0.15680800000000	0.01371890000000	0.04951420000000	137.98400000000001	973.36900000000003	53.34420000000000	-0.34828600000000	-0.03047110000000	-0.14176700000000	0.00000000000000	-0.20727400000000	0.00000000000000	0.00000000000000	0.39217900000000	0.00000000000000	
0.01833300000000	-9.25478000000000	203.03500000000000	30.94290000000000	0.15988100000000	0.01398780000000	0.05101190000000	139.17900000000000	971.35400000000004	52.18540000000000	-0.35141200000000	-0.03074470000000	-0.14192500000000	0.00000000000000	-0.24541300000000	0.00000000000000	0.00000000000000	0.26765900000000	0.00000000000000	
0.02000000000000	-10.99010000000000	214.20900000000000	31.57580000000000	0.16286100000000	0.01424850000000	0.05249560000000	140.28100000000001	968.81399999999996	50.97830000000000	-0.35441800000000	-0.03100770000000	-0.14206700000000	0.00000000000000	-0.28555200000000	0.00000000000000	0.00000000000000	0.14023000000000	0.00000000000000	
0.02166700000000	-12.81510000000000	225.60400000000001	32.16490000000000	0.16574400000000	0.01450070000000	0.05396350000000	141.28899999999999	965.74599999999998	49.72460000000000	-0.35729500000000	-0.03125930000000	-0.14219200000000	0.00000000000000	-0.32765900000000	0.00000000000000	0.00000000000000	0.01003130000000	0.00000000000000	
0.02333300000000	-14.72920000000000	237.21000000000001	32.70800000000000	0.16852600000000	0.01474410000000	0.05541390000000	142.19900000000001	962.14599999999996	48.42600000000000	-0.36003200000000	-0.03149880000000	-0.14229700000000	0.00000000000000	-0.37169400000000	0.00000000000000	0.00000000000000	-0.12279000000000	0.00000000000000	
0.02500000000000	-16.73180000000000	249.02099999999999	33.20290000000000	0.17120400000000	0.01497840000000	0.05684490000000	143.00999999999999	958.01099999999997	47.08450000000000	-0.36262200000000	-0.03172540000000	-0.14238100000000	0.00000000000000	-0.41761000000000	0.00000000000000	0.00000000000000	-0.25807500000000	0.00000000000000	
0.02666700000000	-18.82210000000000	261.02699999999999	33.64770000000000	0.17377600000000	0.01520340000000	0.05825490000000	143.72000000000000	953.33900000000006	45.70200000000000	-0.36505700000000	-0.03193840000000	-0.14244200000000	0.00000000000000	-0.46535400000000	0.00000000000000	0.00000000000000	-0.39565700000000	0.00000000000000	
0.02833300000000	-20.99890000000000	273.22000000000003	34.04040000000000	0.17623800000000	0.01541880000000	0.05964220000000	144.32800000000000	948.13099999999997	44.28070000000000	-0.36732700000000	-0.03213700000000	-0.14247800000000	0.00000000000000	-0.51486800000000	0.00000000000000	0.00000000000000	-0.53536100000000	0.00000000000000	
0.03000000000000	-23.26100000000000	285.58999999999997	34.37900000000000	0.17858800000000	0.01562440000000	0.06100540000000	144.83099999999999	942.38499999999999	42.82280000000000	-0.36942400000000	-0.03232050000000	-0.14248700000000	0.00000000000000	-0.56608300000000	0.00000000000000	0.00000000000000	-0.67700300000000	0.00000000000000	
0.03166700000000	-25.60670000000000	298.12900000000002	34.66180000000000	0.18082400000000	0.01582000000000	0.06234280000000	145.22800000000001	936.10500000000002	41.33060000000000	-0.37134100000000	-0.03248820000000	-0.14246700000000	0.00000000000000	-0.61892900000000	0.00000000000000	0.00000000000000	-0.82038900000000	0.00000000000000	
0.03333300000000	-28.03440000000000	310.82600000000002	34.88730000000000	0.18294200000000	0.01600540000000	0.06365300000000	145.51800000000000	929.29100000000005	39.80650000000000	-0.37307000000000	-0.03263940000000	-0.14241600000000	0.00000000000000	-0.67332600000000	0.00000000000000	0.00000000000000	-0.96532200000000	0.00000000000000	
0.03500000000000	-30.54200000000000	323.67200000000003	35.05370000000000	0.18494300000000	0.01618040000000	0.06493470000000	145.69999999999999	921.94799999999998	38.25300000000000	-0.37460200000000	-0.03277350000000	-0.14233100000000	0.00000000000000	-0.72918800000000	0.00000000000000	0.00000000000000	-1.11159000000000	0.00000000000000	
0.03666700000000	-33.12750000000000	336.65699999999998	35.15970000000000	0.18682300000000	0.01634490000000	0.06618650000000	145.77300000000000	914.08000000000004	36.67270000000000	-0.37593100000000	-0.03288980000000	-0.14221200000000	0.00000000000000	-0.78642600000000	0.00000000000000	0.00000000000000	-1.25899000000000	0.00000000000000	
0.03833300000000	-35.78840000000000	349.77100000000002	35.20390000000000	0.18858200000000	0.01649880000000	0.06740730000000	145.73599999999999	905.69299999999998	35.06820000000000	-0.37705000000000	-0.03298770000000	-0.14205700000000	0.00000000000000	-0.84494100000000	0.00000000000000	0.00000000000000	-1.40728000000000	0.00000000000000	
0.04000000000000	-38.52200000000000	363.00299999999999	35.18530000000000	0.19021800000000	0.01664190000000	0.06859580000000	145.58900000000000	896.79200000000003	33.44210000000000	-0.37795200000000	-0.03306660000000	-0.14186200000000	0.00000000000000	-0.90463100000000	0.00000000000000	0.00000000000000	-1.55626000000000	0.00000000000000	
0.04166700000000	-41.32560000000000	376.34199999999998	35.10270000000000	0.19173100000000	0.01677430000000	0.06975100000000	145.33199999999999	887.38699999999994	31.79730000000000	-0.37863100000000	-0.03312600000000	-0.14162800000000	0.00000000000000	-0.96538900000000	0.00000000000000	0.00000000000000	-1.70567000000000	0.00000000000000	
0.04333300000000	-44.19620000000000	389.77699999999999	34.95520000000000	0.19312000000000	0.01689580000000	0.07087190000000	144.96500000000000	877.48400000000004	30.13650000000000	-0.37908100000000	-0.03316540000000	-0.14135100000000	0.00000000000000	-1.02710000000000	0.00000000000000	0.00000000000000	-1.85530000000000	0.00000000000000	
0.04500000000000	-47.13050000000000	403.29899999999998	34.74190000000000	0.19438500000000	0.01700650000000	0.07195770000000	144.48699999999999	867.09500000000003	28.46260000000000	-0.37929600000000	-0.03318420000000	-0.14103100000000	0.00000000000000	-1.08965000000000	0.00000000000000	0.00000000000000	-2.00489000000000	0.00000000000000	
0.04666700000000	-50.12510000000000	416.89600000000002	34.46240000000000	0.19552500000000	0.01710620000000	0.07300740000000	143.89900000000000	856.22799999999995	26.77840000000000	-0.37927200000000	-0.03318200000000	-0.14066500000000	0.00000000000000	-1.15291000000000	0.00000000000000	0.00000000000000	-2.15421000000000	0.00000000000000	
0.04833300000000	-53.17650000000000	430.55599999999998	34.11590000000000	0.19654100000000	0.01719510000000	0.07402040000000	143.20200000000000	844.89599999999996	25.08690000000000	-0.37900200000000	-0.03315850000000	-0.14025200000000	0.00000000000000	-1.21677000000000	0.00000000000000	0.00000000000000	-2.30299000000000	0.00000000000000	
0.05000000000000	-56.28090000000000	444.26900000000001	33.70230000000000	0.19743200000000	0.01727310000000	0.07499600000000	142.39599999999999	833.11099999999999	23.39100000000000	-0.37848400000000	-0.03311320000000	-0.13979100000000	0.00000000000000	-1.28108000000000	0.00000000000000	0.00000000000000	-2.45101000000000	0.00000000000000	
0.05166700000000	-59.43430000000000	458.02400000000000	33.22120000000000	0.19820100000000	0.01734030000000	0.07593360000000	141.48300000000000	820.88599999999997	21.69350000000000	-0.37771400000000	-0.03304580000000	-0.13928000000000	0.00000000000000	-1.34571000000000	0.00000000000000	0.00000000000000	-2.59799000000000	0.00000000000000	
